P3
10 10
255
128
128
128
128
128
128
128
128
128
128
128
128
128
128
128
128
128
128
128
128
128
128
128
128
128
128
128
128
128
128
128
128
128
128
128
128
128
128
128
128
128
128
0
0
0
0
0
0
255
255
255
128
128
128
128
128
128
128
128
128
128
128
128
128
128
128
128
128
128
0
0
0
0
0
0
128
128
128
255
255
255
128
128
128
0
0
0
128
128
128
128
128
128
0
0
0
0
0
0
0
0
0
128
128
128
128
128
128
255
255
255
128
128
128
128
128
128
128
128
128
128
128
128
128
128
128
128
128
128
128
128
128
128
128
128
128
128
128
255
255
255
128
128
128
128
128
128
0
0
0
128
128
128
128
128
128
128
128
128
128
128
128
128
128
128
128
128
128
255
255
255
128
128
128
128
128
128
0
0
0
128
128
128
128
128
128
128
128
128
128
128
128
128
128
128
128
128
128
255
255
255
128
128
128
128
128
128
0
0
0
128
128
128
255
255
255
255
255
255
128
128
128
128
128
128
128
128
128
255
255
255
128
128
128
0
0
0
128
128
128
128
128
128
128
128
128
128
128
128
128
128
128
128
128
128
128
128
128
255
255
255
128
128
128
128
128
128
255
255
255
128
128
128
128
128
128
128
128
128
128
128
128
128
128
128
128
128
128
255
255
255
128
128
128
128
128
128
128
128
128
